<svg id="visual" viewBox="0 0 900 600" width="900" height="600" xmlns="http://www.w3.org/2000/svg" xmlns:xlink="http://www.w3.org/1999/xlink" version="1.1"><rect x="0" y="0" width="900" height="600" fill="#A8A89E"></rect><path d="M0 420L25 413.8C50 407.7 100 395.3 150 361.8C200 328.3 250 273.7 300 261.3C350 249 400 279 450 325.7C500 372.3 550 435.7 600 463C650 490.3 700 481.7 750 443.5C800 405.3 850 337.7 875 303.8L900 270L900 601L875 601C850 601 800 601 750 601C700 601 650 601 600 601C550 601 500 601 450 601C400 601 350 601 300 601C250 601 200 601 150 601C100 601 50 601 25 601L0 601Z" fill="#FFFFFF" stroke-linecap="round" stroke-linejoin="miter"></path></svg>